<svg viewBox="0 0 24 24" fill="none" xmlns="http://www.w3.org/2000/svg" width="24" height="24" class="sc-POYre ydjIm"><title>South America</title><path d="M21.82 0H2.18C.977 0 0 .97 0 2.166v11.668C0 15.03.976 16 2.18 16h19.64c1.204 0 2.18-.97 2.18-2.166V2.166A2.173 2.173 0 0 0 21.82 0z" fill="#4A88DC"></path><path d="M11.871 5.26c-.03-.2-.205-.405-.415-.37a1.608 1.608 0 0 1-.17.034.406.406 0 0 1-.279-.123c-.236-.211-.38-.548-.685-.65a1.874 1.874 0 0 1-.292-.089c-.117-.061-.202-.194-.343-.2a.718.718 0 0 0-.164.03.838.838 0 0 1-.49-.106 1.905 1.905 0 0 1-.687-.422c-.212-.238-.295-.579-.531-.797a3.604 3.604 0 0 0-.686-.395.681.681 0 0 1-.38-.551c0-.085.23-.079.308-.065l.885.143a.53.53 0 0 1 .216.068c.106.072.164.228.295.239.065 0 .13-.035.195-.031.165 0 .22.231.343.34.057.029.112.06.165.096.071.09.1.207.078.32-.024.198.006.4.086.582.09.184.301.275.497.215.134-.058.203-.201.306-.304.103-.102.298-.156.377-.034.079.123 0 .215-.038.32-.038.106-.065.25.034.304a.259.259 0 0 0 .12.023c.182 0 .415.062.436.242a.743.743 0 0 1-.027.184.416.416 0 0 0 .342.453c.114.007.23.007.343 0 .103 0 .254-.116.377-.18.127-.061.26-.11.395-.147l.549-.15a.69.69 0 0 1 .551.143c.223.18.378.446.635.579.387.198.946.061 1.207.409.117.153.13.364.233.527.175.28.545.34.868.426.322.085.686.262.713.59.038.442-.57.745-.528 1.184 0 .109.062.208.072.317.027.29-.24.524-.508.643a1.71 1.71 0 0 0-.61.375 3.03 3.03 0 0 0-.686.95c-.411.783-1.663 1.11-1.677 2.339 0 .392-.322.381-.343.892 0 .235.22.555.144.729-.075.173-.342.197-.524.03a1.75 1.75 0 0 1-.47-.715c-.254-1.25.15-2.165.384-3.405.11-.602.439-1.488.058-1.971-.28-.34-.661-.43-.816-.977-.13-.467-.637-.794-.377-1.199.102-.144.216-.279.343-.402a.495.495 0 0 0 .171-.442z" fill="#fff"></path></svg>