<svg viewBox="0 0 24 16" fill="none" xmlns="http://www.w3.org/2000/svg" width="24" height="16" class="sc-cegkxp fUXWwF"><title>North America</title><path d="M21.819 0H2.181C.977 0 0 .97 0 2.166v11.668C0 15.03.977 16 2.182 16h19.637C23.023 16 24 15.03 24 13.834V2.166A2.174 2.174 0 0 0 21.819 0z" fill="#4A88DC"></path><path d="M11.83 13.858c-.133-.215-.168-.504-.377-.647a1.977 1.977 0 0 0-.487-.16c-.161-.058-.32-.225-.254-.381.065-.157.264-.167.412-.113.147.055.274.16.425.201a.835.835 0 0 0 .82-.381c.098-.137.188-.28.27-.426a3.27 3.27 0 0 1 .615-.613l.36-.252c.157-.144.33-.272.514-.381.096-.04.203-.058.302-.095a.377.377 0 0 0 .237-.184c.055-.133 0-.273-.127-.44a.5.5 0 0 1-.096-.119c-.038-.085 0-.183 0-.279a.548.548 0 0 0-.254-.368 1.073 1.073 0 0 1-.343-.316 1.94 1.94 0 0 1-.137-.368 2.778 2.778 0 0 1 0-.735c.05-.331.03-.668-.055-.991a2.908 2.908 0 0 0-.857-1.362 2.868 2.868 0 0 1-.584-.637.797.797 0 0 1-.082-.255.603.603 0 0 1-.02-.103c0-.32.288-.52.288-.936 0-.323.466-.323.548.201a.678.678 0 0 0 .124.429.29.29 0 0 0 .237.085c.068-.015.136-.034.202-.058a.595.595 0 0 1 .59.26c.123.192.204.407.24.632.087.389.168.778.244 1.168.019.084.03.17.03.256a2.14 2.14 0 0 1-.04.272c-.04.609.26 1.19.781 1.512.13.092.216-.03.244-.085.158-.286.1-.722.377-.91.072-.047.158-.07.226-.125a1.48 1.48 0 0 0 .213-.293c.244-.317.768-.34.974-.681.206-.34 0-.766.162-1.1.078-.15.23-.262.274-.426.044-.163-.065-.412-.041-.62 0-.091.048-.176.058-.268 0-.038.02-.235.034-.463 0-.154.059-.753.055-.855-.027-.538-.343-.763-1.111-.844-.895-.1-1.492.493-2.487.197a2.497 2.497 0 0 0-.566-.099h-.123a.764.764 0 0 0-.168 0c-1.2.123-2.237 1.495-2.909 1.938a1.895 1.895 0 0 1-.504.235.586.586 0 0 1-.645-.211c-.062-.106-.076-.239-.158-.341-.185-.194-.514-.02-.686.174A3.344 3.344 0 0 0 7.8 4.859a.545.545 0 0 0 .027.483.547.547 0 0 0 .391.16.838.838 0 0 1 .415.106c.117.085.062.225.048.368 0 .054.145.163.145.163a.24.24 0 0 1 0 .204c-.08.106-.247.051-.343-.027-.097-.078-.23-.177-.344-.133-.061.02-.11.072-.171.079-.13 0-.189-.16-.305-.218-.179-.089-.343.119-.518.218a.998.998 0 0 1-.762-.017l-.343-.103-.61-.235a.922.922 0 0 0-.58 0 2.06 2.06 0 0 0-.686.426.293.293 0 0 0-.093.109.338.338 0 0 0 .049.252c.078.177.113.37.102.562-.048.245-.07.495-.065.745.062.312.3.559.61.634.311.067.635-.013.879-.215.076-.073.161-.138.254-.19a.559.559 0 0 1 .566.105c.075.063.14.137.195.218.058.085.165.266.244.364a.93.93 0 0 0 .26.239c.135.05.26.12.374.207.078.122.142.25.192.385.1.17.302.29.343.487a.825.825 0 0 1-.061.34c-.083.3-.053.617.082.896.083.158.184.306.298.443l.827 1.052c.062.082.655.518.789.627.24.19.631.03.878.207a.976.976 0 0 0 .178.136.88.88 0 0 0 .223.031c.137.02.686.681.871.528.107-.113-.178-.392-.329-.637z" fill="#fff"></path></svg>