<!DOCTYPE svg PUBLIC "-//W3C//DTD SVG 1.1//EN" "http://www.w3.org/Graphics/SVG/1.1/DTD/svg11.dtd">
<!-- Uploaded to: SVG Repo, www.svgrepo.com, Transformed by: SVG Repo Mixer Tools -->
<svg width="227px" height="227px" viewBox="0 0 24.00 24.00" fill="none" xmlns="http://www.w3.org/2000/svg" stroke="#D00B22" stroke-width="0.528">
<g id="SVGRepo_bgCarrier" stroke-width="0"/>
<g id="SVGRepo_tracerCarrier" stroke-linecap="round" stroke-linejoin="round" stroke="#CCCCCC" stroke-width="0.096"/>
<g id="SVGRepo_iconCarrier"> <g clip-path="url(#clip0_949_23339)"> <path d="M17.5821 6.95711C17.9726 6.56658 17.9726 5.93342 17.5821 5.54289C17.1916 5.15237 16.5584 5.15237 16.1679 5.54289L5.54545 16.1653L1.70711 12.327C1.31658 11.9365 0.683417 11.9365 0.292893 12.327C-0.0976311 12.7175 -0.097631 13.3507 0.292893 13.7412L4.83835 18.2866C5.22887 18.6772 5.86204 18.6772 6.25256 18.2866L17.5821 6.95711Z" fill="#D00B22"/> <path d="M23.5821 6.95711C23.9726 6.56658 23.9726 5.93342 23.5821 5.54289C23.1915 5.15237 22.5584 5.15237 22.1678 5.54289L10.8383 16.8724C10.4478 17.263 10.4478 17.8961 10.8383 18.2866C11.2288 18.6772 11.862 18.6772 12.2525 18.2866L23.5821 6.95711Z" fill="#D00B22"/> </g> <defs> <clipPath id="clip0_949_23339"> <rect width="24" height="24" fill="white"/> </clipPath> </defs> </g>
</svg>